<?xml version="1.0" encoding="UTF-8"?>
<svg width="111px" height="54px" viewBox="0 0 111 54" version="1.1" xmlns="http://www.w3.org/2000/svg" xmlns:xlink="http://www.w3.org/1999/xlink">
    <!-- Generator: Sketch 46.2 (44496) - http://www.bohemiancoding.com/sketch -->
    <title>logo</title>
    <desc>Created with Sketch.</desc>
    <defs></defs>
    <g id="Page-1" stroke="none" stroke-width="1" fill="none" fill-rule="evenodd">
        <g id="Artboard" transform="translate(-1.000000, 0.000000)" fill="#FFFFFF">
            <g id="logo" transform="translate(1.000000, 0.000000)">
                <path d="M80.5631502,35.5851281 C80.5631502,42.505102 85.3952987,48.1064068 92.5357263,48.1064068 C99.5651165,48.1064068 104.47102,42.7239347 104.47102,35.5851281 C104.47102,28.4819832 99.5651165,23.0995111 92.5357263,23.0995111 C85.2858824,23.0995111 80.5631502,28.6651542 80.5631502,35.5851281 L80.5631502,35.5851281 Z M110.109607,52.9758379 L108.755276,52.9758379 C106.18683,52.9758379 104.104678,50.8944965 104.104678,48.3260499 C101.359544,51.585035 97.2957411,53.708522 91.8395143,53.708522 C82.0649904,53.708522 74.4488045,46.0931466 74.4488045,35.5851281 C74.4488045,25.0771096 82.0649904,17.4617342 91.8395143,17.4617342 C97.2957411,17.4617342 101.359544,19.5860317 104.104678,22.8806784 C104.104678,20.2919695 106.203039,18.1944183 108.790938,18.1944183 L110.109607,18.1944183 L110.109607,52.9758379 Z" id="Fill-17"></path>
                <path d="M65.8776979,52.9762432 L59.9100511,52.9762432 L59.9100511,0.253790176 L61.2270993,0.253790176 C63.795546,0.253790176 65.8776979,2.33594209 65.8776979,4.90438872 L65.8776979,52.9762432 Z" id="Fill-15"></path>
                <path d="M20.6532611,35.5851281 C20.6532611,42.8714441 25.9246959,48.1064068 32.9184246,48.1064068 C39.8748706,48.1064068 45.183588,42.8714441 45.183588,35.5851281 C45.183588,28.2988122 39.8748706,23.0995111 32.9184246,23.0995111 C25.9246959,23.0995111 20.6532611,28.2988122 20.6532611,35.5851281 M51.3344058,35.5851281 C51.3344058,45.9107861 43.4629152,53.708522 32.9184246,53.708522 C22.373934,53.708522 14.5389155,45.9107861 14.5389155,35.5851281 C14.5389155,25.2594701 22.373934,17.4617342 32.9184246,17.4617342 C43.4629152,17.4617342 51.3344058,25.2594701 51.3344058,35.5851281" id="Fill-13"></path>
                <path d="M5.96748466,52.9762432 L-0.000162098241,52.9762432 L-0.000162098241,0.253790176 L1.31688611,0.253790176 C3.88533275,0.253790176 5.96748466,2.33594209 5.96748466,4.90438872 L5.96748466,52.9762432 Z" id="Fill-10"></path>
            </g>
        </g>
    </g>
</svg>